<svg xmlns="http://www.w3.org/2000/svg" width="1200" height="700" viewBox="0 0 1200 700">
  <defs>
    <radialGradient id="space" cx="50%" cy="40%" r="80%">
      <stop offset="0%" stop-color="#1a1a24"/>
      <stop offset="70%" stop-color="#0a0a0f"/>
      <stop offset="100%" stop-color="#050611"/>
    </radialGradient>
    <linearGradient id="trail" x1="0" y1="0" x2="1" y2="1">
      <stop offset="0%" stop-color="#06b6d4" stop-opacity="0.6"/>
      <stop offset="50%" stop-color="#8b5cf6" stop-opacity="0.45"/>
      <stop offset="100%" stop-color="#a3e635" stop-opacity="0.3"/>
    </linearGradient>
  </defs>
  <rect width="1200" height="700" fill="url(#space)"/>
  <g opacity="0.85">
    <path d="M120 520 L260 420 L360 480 L460 360 L600 420 L760 320 L920 370 L1040 260" fill="none" stroke="url(#trail)" stroke-width="2"/>
    <circle cx="120" cy="520" r="5" fill="#ffffff" opacity="0.8"/>
    <circle cx="260" cy="420" r="5" fill="#ffffff" opacity="0.8"/>
    <circle cx="360" cy="480" r="5" fill="#ffffff" opacity="0.75"/>
    <circle cx="460" cy="360" r="6" fill="#ffffff" opacity="0.85"/>
    <circle cx="600" cy="420" r="5" fill="#ffffff" opacity="0.75"/>
    <circle cx="760" cy="320" r="6" fill="#ffffff" opacity="0.85"/>
    <circle cx="920" cy="370" r="5" fill="#ffffff" opacity="0.75"/>
    <circle cx="1040" cy="260" r="6" fill="#ffffff" opacity="0.85"/>
  </g>
  <g opacity="0.75">
    <circle cx="200" cy="140" r="2" fill="#ffffff"/>
    <circle cx="320" cy="120" r="1.6" fill="#ffffff"/>
    <circle cx="520" cy="140" r="1.8" fill="#ffffff"/>
    <circle cx="820" cy="120" r="1.6" fill="#ffffff"/>
    <circle cx="980" cy="90" r="2" fill="#ffffff"/>
  </g>
  <g transform="translate(160 180)" opacity="0.9">
    <rect width="320" height="180" rx="24" fill="rgba(255,255,255,0.05)" stroke="rgba(255,255,255,0.16)"/>
    <rect x="24" y="36" width="180" height="14" rx="7" fill="rgba(255,255,255,0.18)"/>
    <rect x="24" y="64" width="240" height="12" rx="6" fill="rgba(255,255,255,0.12)"/>
    <rect x="24" y="90" width="160" height="12" rx="6" fill="rgba(255,255,255,0.12)"/>
  </g>
</svg>
