<svg xmlns="http://www.w3.org/2000/svg" width="1600" height="900" viewBox="0 0 1600 900">
  <defs>
    <radialGradient id="bgA" cx="15%" cy="10%" r="70%">
      <stop offset="0%" stop-color="#8b5cf6" stop-opacity="0.45"/>
      <stop offset="55%" stop-color="#8b5cf6" stop-opacity="0.12"/>
      <stop offset="100%" stop-color="#0a0a0f" stop-opacity="0"/>
    </radialGradient>
    <radialGradient id="bgB" cx="85%" cy="15%" r="75%">
      <stop offset="0%" stop-color="#22d3ee" stop-opacity="0.35"/>
      <stop offset="60%" stop-color="#22d3ee" stop-opacity="0.1"/>
      <stop offset="100%" stop-color="#0a0a0f" stop-opacity="0"/>
    </radialGradient>
    <radialGradient id="bgC" cx="50%" cy="90%" r="80%">
      <stop offset="0%" stop-color="#f59e0b" stop-opacity="0.15"/>
      <stop offset="70%" stop-color="#f59e0b" stop-opacity="0.04"/>
      <stop offset="100%" stop-color="#0a0a0f" stop-opacity="0"/>
    </radialGradient>
    <pattern id="stars" width="140" height="140" patternUnits="userSpaceOnUse">
      <circle cx="16" cy="20" r="1.2" fill="#ffffff" opacity="0.6"/>
      <circle cx="60" cy="48" r="1.0" fill="#ffffff" opacity="0.45"/>
      <circle cx="110" cy="30" r="1.4" fill="#ffffff" opacity="0.75"/>
      <circle cx="98" cy="90" r="1.1" fill="#ffffff" opacity="0.55"/>
      <circle cx="32" cy="112" r="1.3" fill="#ffffff" opacity="0.7"/>
      <circle cx="120" cy="124" r="1.0" fill="#ffffff" opacity="0.5"/>
    </pattern>
    <linearGradient id="glass" x1="0" y1="0" x2="1" y2="1">
      <stop offset="0%" stop-color="rgba(255,255,255,0.12)"/>
      <stop offset="100%" stop-color="rgba(255,255,255,0.04)"/>
    </linearGradient>
  </defs>
  <rect width="1600" height="900" fill="#0a0a0f"/>
  <rect width="1600" height="900" fill="url(#bgA)"/>
  <rect width="1600" height="900" fill="url(#bgB)"/>
  <rect width="1600" height="900" fill="url(#bgC)"/>
  <rect width="1600" height="900" fill="url(#stars)" opacity="0.35"/>

  <g opacity="0.95">
    <rect x="130" y="160" width="420" height="260" rx="28" fill="url(#glass)" stroke="rgba(255,255,255,0.18)" stroke-width="1.5"/>
    <rect x="170" y="210" width="340" height="26" rx="13" fill="rgba(255,255,255,0.18)"/>
    <rect x="170" y="260" width="260" height="16" rx="8" fill="rgba(255,255,255,0.14)"/>
    <rect x="170" y="290" width="300" height="16" rx="8" fill="rgba(255,255,255,0.12)"/>
    <rect x="170" y="330" width="200" height="16" rx="8" fill="rgba(255,255,255,0.12)"/>
  </g>

  <g opacity="0.95">
    <rect x="980" y="220" width="420" height="260" rx="28" fill="url(#glass)" stroke="rgba(255,255,255,0.18)" stroke-width="1.5"/>
    <rect x="1020" y="270" width="260" height="16" rx="8" fill="rgba(255,255,255,0.16)"/>
    <rect x="1020" y="300" width="300" height="16" rx="8" fill="rgba(255,255,255,0.12)"/>
    <rect x="1020" y="330" width="200" height="16" rx="8" fill="rgba(255,255,255,0.12)"/>
    <circle cx="1210" cy="380" r="28" fill="rgba(255,255,255,0.18)"/>
    <circle cx="1210" cy="380" r="14" fill="#22d3ee" opacity="0.7"/>
  </g>

  <g opacity="0.9">
    <path d="M980 120 L1100 190 L1220 130 L1320 210" fill="none" stroke="rgba(34,211,238,0.45)" stroke-width="2"/>
    <circle cx="980" cy="120" r="5" fill="#ffffff" opacity="0.8"/>
    <circle cx="1100" cy="190" r="5" fill="#ffffff" opacity="0.75"/>
    <circle cx="1220" cy="130" r="5" fill="#ffffff" opacity="0.75"/>
    <circle cx="1320" cy="210" r="5" fill="#ffffff" opacity="0.75"/>
  </g>
</svg>
