<svg xmlns="http://www.w3.org/2000/svg" width="1200" height="4400" viewBox="0 0 1200 4400">
  <defs>
    <radialGradient id="bgA" cx="18%" cy="8%" r="75%">
      <stop offset="0" stop-color="#8b5cf6" stop-opacity="0.60"/>
      <stop offset="0.55" stop-color="#8b5cf6" stop-opacity="0.18"/>
      <stop offset="1" stop-color="#000000" stop-opacity="0"/>
    </radialGradient>
    <radialGradient id="bgB" cx="88%" cy="12%" r="80%">
      <stop offset="0" stop-color="#22d3ee" stop-opacity="0.45"/>
      <stop offset="0.60" stop-color="#22d3ee" stop-opacity="0.12"/>
      <stop offset="1" stop-color="#000000" stop-opacity="0"/>
    </radialGradient>
    <radialGradient id="bgC" cx="50%" cy="96%" r="78%">
      <stop offset="0" stop-color="#f59e0b" stop-opacity="0.20"/>
      <stop offset="0.65" stop-color="#f59e0b" stop-opacity="0.07"/>
      <stop offset="1" stop-color="#000000" stop-opacity="0"/>
    </radialGradient>

    <linearGradient id="accent" x1="0" y1="0" x2="1" y2="0">
      <stop offset="0" stop-color="#8b5cf6"/>
      <stop offset="0.5" stop-color="#22d3ee"/>
      <stop offset="1" stop-color="#a3e635"/>
    </linearGradient>

    <filter id="shadow" x="-25%" y="-25%" width="150%" height="150%">
      <feDropShadow dx="0" dy="18" stdDeviation="18" flood-color="#000000" flood-opacity="0.60"/>
    </filter>

    <pattern id="stars" width="180" height="180" patternUnits="userSpaceOnUse">
      <circle cx="18" cy="22" r="1.2" fill="#ffffff" opacity="0.75"/>
      <circle cx="78" cy="44" r="1.0" fill="#ffffff" opacity="0.55"/>
      <circle cx="142" cy="36" r="1.4" fill="#ffffff" opacity="0.82"/>
      <circle cx="120" cy="98" r="1.1" fill="#ffffff" opacity="0.60"/>
      <circle cx="40" cy="122" r="1.3" fill="#ffffff" opacity="0.70"/>
      <circle cx="160" cy="150" r="1.0" fill="#ffffff" opacity="0.55"/>
      <circle cx="92" cy="156" r="1.6" fill="#ffffff" opacity="0.85"/>
      <circle cx="24" cy="168" r="1.0" fill="#ffffff" opacity="0.50"/>
      <circle cx="150" cy="18" r="1.0" fill="#ffffff" opacity="0.45"/>
    </pattern>

    <radialGradient id="moon" cx="35%" cy="30%" r="70%">
      <stop offset="0" stop-color="#ffffff" stop-opacity="0.95"/>
      <stop offset="0.55" stop-color="#ffffff" stop-opacity="0.65"/>
      <stop offset="1" stop-color="#22d3ee" stop-opacity="0.18"/>
    </radialGradient>

    <linearGradient id="constLine" x1="0" y1="0" x2="1" y2="1">
      <stop offset="0" stop-color="#22d3ee" stop-opacity="0.42"/>
      <stop offset="0.5" stop-color="#8b5cf6" stop-opacity="0.35"/>
      <stop offset="1" stop-color="#a3e635" stop-opacity="0.24"/>
    </linearGradient>

    <linearGradient id="glass" x1="0" y1="0" x2="1" y2="1">
      <stop offset="0" stop-color="#ffffff" stop-opacity="0.09"/>
      <stop offset="0.45" stop-color="#ffffff" stop-opacity="0.05"/>
      <stop offset="1" stop-color="#ffffff" stop-opacity="0.03"/>
    </linearGradient>
    <linearGradient id="glass2" x1="1" y1="0" x2="0" y2="1">
      <stop offset="0" stop-color="#22d3ee" stop-opacity="0.10"/>
      <stop offset="0.5" stop-color="#8b5cf6" stop-opacity="0.10"/>
      <stop offset="1" stop-color="#a3e635" stop-opacity="0.06"/>
    </linearGradient>
  </defs>

  <!-- Background -->
  <rect width="1200" height="4400" fill="#050611"/>
  <rect width="1200" height="4400" fill="url(#bgA)"/>
  <rect width="1200" height="4400" fill="url(#bgB)"/>
  <rect width="1200" height="4400" fill="url(#bgC)"/>
  <rect width="1200" height="4400" fill="url(#stars)" opacity="0.33"/>

  <!-- Constellation -->
  <g opacity="0.95">
    <path d="M920 140 L1035 210 L1100 130 L1140 240 L1040 290 L960 250 Z"
          fill="none" stroke="url(#constLine)" stroke-width="2"/>
    <circle cx="920" cy="140" r="4" fill="#ffffff" opacity="0.9"/>
    <circle cx="1035" cy="210" r="4" fill="#ffffff" opacity="0.85"/>
    <circle cx="1100" cy="130" r="4" fill="#ffffff" opacity="0.85"/>
    <circle cx="1140" cy="240" r="4" fill="#ffffff" opacity="0.8"/>
    <circle cx="1040" cy="290" r="4" fill="#ffffff" opacity="0.85"/>
    <circle cx="960" cy="250" r="4" fill="#ffffff" opacity="0.75"/>
  </g>

  <!-- Break-the-loop ring -->
  <g transform="translate(130,165)">
    <circle cx="0" cy="0" r="64" fill="rgba(255,255,255,0.03)" stroke="rgba(255,255,255,0.16)" stroke-width="2"/>
    <path d="M-52,0 A52,52 0 1,1 52,0" fill="none" stroke="url(#accent)" stroke-width="6" stroke-linecap="round"/>
    <path d="M30,-34 L56,-60" stroke="#fb7185" stroke-width="6" stroke-linecap="round"/>
    <path d="M52,0 L36,-10 L36,10 Z" fill="#22d3ee" opacity="0.7"/>
  </g>

  <!-- Snow Moon -->
  <g transform="translate(600,150)">
    <circle cx="0" cy="0" r="70" fill="rgba(255,255,255,0.04)" stroke="rgba(255,255,255,0.14)" stroke-width="2"/>
    <circle cx="0" cy="0" r="52" fill="url(#moon)" opacity="0.92"/>
    <circle cx="-18" cy="-8" r="7" fill="rgba(0,0,0,0.18)"/>
    <circle cx="14" cy="16" r="9" fill="rgba(0,0,0,0.16)"/>
    <circle cx="20" cy="-18" r="5" fill="rgba(0,0,0,0.14)"/>
  </g>

  <!-- Frame -->
  <rect x="40" y="40" width="1120" height="4320" rx="30"
        fill="rgba(255,255,255,0.03)" stroke="rgba(255,255,255,0.10)" filter="url(#shadow)"/>
  <rect x="60" y="60" width="1080" height="4280" rx="26"
        fill="rgba(255,255,255,0.02)" stroke="rgba(255,255,255,0.08)"/>

  <!-- Top Title (pure SVG; GitHub-safe) -->
  <g transform="translate(90,120)">
    <text x="0" y="0" fill="rgba(244,247,255,0.95)" font-family="system-ui, -apple-system, Segoe UI, Roboto, Helvetica, Arial"
          font-size="44" font-weight="950" letter-spacing="-1">
      Break the loop. Ship proof. Flip the trajectory.
    </text>
    <text x="0" y="34" fill="rgba(244,247,255,0.68)" font-family="system-ui, -apple-system, Segoe UI, Roboto, Helvetica, Arial"
          font-size="14" font-weight="700">
      GitHub-safe SVG (no foreignObject). Contains: vector mindmap + embedded mindmap panel + wireframes.
    </text>
    <rect x="0" y="52" width="1020" height="2" rx="999" fill="url(#accent)" opacity="0.95"/>
  </g>

  <!-- ====== Generated Mindmap (vector) ====== -->
  <g transform="translate(90,2460)">
    <rect x="0" y="0" width="1020" height="780" rx="26" fill="url(#glass)" stroke="rgba(255,255,255,0.16)"/>
    <rect x="0" y="0" width="1020" height="780" rx="26" fill="url(#glass2)" opacity="0.70"/>
    <text x="24" y="40" fill="rgba(244,247,255,0.92)" font-family="system-ui, -apple-system, Segoe UI, Roboto, Helvetica, Arial"
          font-size="14" font-weight="900" letter-spacing="2">
      GENERATED MINDMAP • IDEA → MARKET FLOW (PROOF OF PRODUCT THINKING)
    </text>
    <text x="24" y="62" fill="rgba(244,247,255,0.62)" font-family="system-ui, -apple-system, Segoe UI, Roboto, Helvetica, Arial"
          font-size="12">
      Vector-built inside this SVG so GitHub renders it perfectly.
    </text>

    <rect x="20" y="82" width="980" height="678" rx="18" fill="rgba(0,0,0,0.22)" stroke="rgba(255,255,255,0.10)"/>

    <g opacity="0.95" stroke="rgba(244,247,255,0.22)" stroke-width="2" fill="none">
      <path d="M510 420 C430 420, 380 360, 320 320"/>
      <path d="M510 420 C595 420, 660 360, 720 320"/>
      <path d="M510 420 C430 460, 380 540, 320 600"/>
      <path d="M510 420 C595 460, 660 540, 720 600"/>
      <path d="M510 420 C510 360, 510 320, 510 260"/>
      <path d="M510 420 C510 500, 510 560, 510 620"/>
    </g>

    <g transform="translate(510,420)">
      <circle r="54" fill="rgba(255,255,255,0.06)" stroke="rgba(255,255,255,0.18)" stroke-width="2"/>
      <circle r="40" fill="rgba(0,0,0,0.25)" stroke="rgba(255,255,255,0.10)" stroke-width="1"/>
      <text x="0" y="-8" text-anchor="middle" fill="rgba(244,247,255,0.95)"
            font-family="system-ui, -apple-system, Segoe UI, Roboto, Helvetica, Arial" font-size="14" font-weight="900">
        IDEA
      </text>
      <text x="0" y="12" text-anchor="middle" fill="rgba(244,247,255,0.70)"
            font-family="system-ui, -apple-system, Segoe UI, Roboto, Helvetica, Arial" font-size="12" font-weight="700">
        to Market
      </text>
    </g>

    <g transform="translate(320,320)">
      <rect x="-165" y="-44" width="330" height="88" rx="18" fill="rgba(255,255,255,0.05)" stroke="rgba(255,255,255,0.14)"/>
      <text x="0" y="-10" text-anchor="middle" fill="rgba(244,247,255,0.92)"
            font-family="system-ui, -apple-system, Segoe UI, Roboto, Helvetica, Arial" font-size="13" font-weight="900">
        1) Problem &amp; Promise
      </text>
      <text x="0" y="12" text-anchor="middle" fill="rgba(244,247,255,0.62)"
            font-family="system-ui, -apple-system, Segoe UI, Roboto, Helvetica, Arial" font-size="11">
        One sentence • clear outcome • who it helps
      </text>
    </g>

    <g transform="translate(720,320)">
      <rect x="-165" y="-44" width="330" height="88" rx="18" fill="rgba(255,255,255,0.05)" stroke="rgba(255,255,255,0.14)"/>
      <text x="0" y="-10" text-anchor="middle" fill="rgba(244,247,255,0.92)"
            font-family="system-ui, -apple-system, Segoe UI, Roboto, Helvetica, Arial" font-size="13" font-weight="900">
        2) 5-Screen MVP
      </text>
      <text x="0" y="12" text-anchor="middle" fill="rgba(244,247,255,0.62)"
            font-family="system-ui, -apple-system, Segoe UI, Roboto, Helvetica, Arial" font-size="11">
        Scope-lock • minimal flow • DoD
      </text>
    </g>

    <g transform="translate(510,260)">
      <rect x="-175" y="-44" width="350" height="88" rx="18" fill="rgba(255,255,255,0.05)" stroke="rgba(255,255,255,0.14)"/>
      <text x="0" y="-10" text-anchor="middle" fill="rgba(244,247,255,0.92)"
            font-family="system-ui, -apple-system, Segoe UI, Roboto, Helvetica, Arial" font-size="13" font-weight="900">
        3) UX &amp; Logic
      </text>
      <text x="0" y="12" text-anchor="middle" fill="rgba(244,247,255,0.62)"
            font-family="system-ui, -apple-system, Segoe UI, Roboto, Helvetica, Arial" font-size="11">
        States • edge cases • data model sketch
      </text>
    </g>

    <g transform="translate(320,600)">
      <rect x="-165" y="-44" width="330" height="88" rx="18" fill="rgba(255,255,255,0.05)" stroke="rgba(255,255,255,0.14)"/>
      <text x="0" y="-10" text-anchor="middle" fill="rgba(244,247,255,0.92)"
            font-family="system-ui, -apple-system, Segoe UI, Roboto, Helvetica, Arial" font-size="13" font-weight="900">
        4) Vibe Coding
      </text>
      <text x="0" y="12" text-anchor="middle" fill="rgba(244,247,255,0.62)"
            font-family="system-ui, -apple-system, Segoe UI, Roboto, Helvetica, Arial" font-size="11">
        AI-assisted build • prompts • checklists
      </text>
    </g>

    <g transform="translate(720,600)">
      <rect x="-165" y="-44" width="330" height="88" rx="18" fill="rgba(255,255,255,0.05)" stroke="rgba(255,255,255,0.14)"/>
      <text x="0" y="-10" text-anchor="middle" fill="rgba(244,247,255,0.92)"
            font-family="system-ui, -apple-system, Segoe UI, Roboto, Helvetica, Arial" font-size="13" font-weight="900">
        5) Reality Check
      </text>
      <text x="0" y="12" text-anchor="middle" fill="rgba(244,247,255,0.62)"
            font-family="system-ui, -apple-system, Segoe UI, Roboto, Helvetica, Arial" font-size="11">
        Evidence • costs • signal • ship/iterate/kill
      </text>
    </g>

    <g transform="translate(510,620)">
      <rect x="-190" y="-44" width="380" height="88" rx="18" fill="rgba(255,255,255,0.05)" stroke="rgba(255,255,255,0.14)"/>
      <text x="0" y="-10" text-anchor="middle" fill="rgba(244,247,255,0.92)"
            font-family="system-ui, -apple-system, Segoe UI, Roboto, Helvetica, Arial" font-size="13" font-weight="900">
        Output: Demo / MVP
      </text>
      <text x="0" y="12" text-anchor="middle" fill="rgba(244,247,255,0.62)"
            font-family="system-ui, -apple-system, Segoe UI, Roboto, Helvetica, Arial" font-size="11">
        Proof beats perception • compounding templates
      </text>
    </g>

    <text x="40" y="740" fill="rgba(244,247,255,0.70)" font-family="system-ui, -apple-system, Segoe UI, Roboto, Helvetica, Arial" font-size="11">
      Symbol: the broken ring at the top of the README = break the loop. This mindmap is the method.
    </text>
  </g>

  <!-- ====== Your Mindmap (SVG wrapper around your PNG) ======
       NOTE: For GitHub reliability, consider embedding the PNG as a base64 data URI. -->
  <g transform="translate(90,3280)">
    <rect x="0" y="0" width="1020" height="760" rx="26" fill="url(#glass)" stroke="rgba(255,255,255,0.16)"/>
    <rect x="0" y="0" width="1020" height="760" rx="26" fill="url(#glass2)" opacity="0.70"/>
    <text x="24" y="40" fill="rgba(244,247,255,0.92)" font-family="system-ui, -apple-system, Segoe UI, Roboto, Helvetica, Arial"
          font-size="14" font-weight="900" letter-spacing="2">
      MINDMAP • THE AGENTIC IDEAFABRIC (YOUR BLUEPRINT)
    </text>
    <text x="24" y="62" fill="rgba(244,247,255,0.62)" font-family="system-ui, -apple-system, Segoe UI, Roboto, Helvetica, Arial"
          font-size="12">
      Place your exported image at: assets/ideafabric-mindmap.png (or change the href below)
    </text>

    <rect x="20" y="82" width="980" height="658" rx="18" fill="rgba(0,0,0,0.22)" stroke="rgba(255,255,255,0.10)"/>
    <image x="20" y="82" width="980" height="658"
           href="assets/ideafabric-mindmap.png"
           preserveAspectRatio="xMidYMid meet"/>
  </g>

  <!-- ====== 5 Pages Wireframes (pure SVG) ====== -->
  <g transform="translate(90,4060)">
    <text x="0" y="0" fill="rgba(244,247,255,0.92)" font-family="system-ui, -apple-system, Segoe UI, Roboto, Helvetica, Arial"
          font-size="14" font-weight="900" letter-spacing="2">
      FRONTEND • 5 PAGES (WIREFRAME PROOF)
    </text>
    <text x="0" y="20" fill="rgba(244,247,255,0.62)" font-family="system-ui, -apple-system, Segoe UI, Roboto, Helvetica, Arial"
          font-size="12">
      High-contrast glass UI • ADHD-friendly capture • guided execution • compounding vault
    </text>

    <!-- Phone 1 -->
    <g transform="translate(0,50)">
      <rect x="0" y="0" width="190" height="280" rx="26" fill="rgba(255,255,255,0.05)" stroke="rgba(255,255,255,0.16)"/>
      <rect x="14" y="14" width="162" height="252" rx="18" fill="rgba(0,0,0,0.26)" stroke="rgba(255,255,255,0.10)"/>
      <rect x="34" y="28" width="120" height="10" rx="5" fill="rgba(255,255,255,0.10)"/>
      <text x="95" y="58" text-anchor="middle" fill="rgba(244,247,255,0.92)" font-family="system-ui" font-size="11" font-weight="900">1) Command Center</text>
      <rect x="28" y="78" width="134" height="26" rx="12" fill="rgba(255,255,255,0.06)" stroke="rgba(255,255,255,0.10)"/>
      <text x="95" y="95" text-anchor="middle" fill="rgba(244,247,255,0.65)" font-family="system-ui" font-size="9">Quick Capture</text>
      <rect x="28" y="114" width="134" height="56" rx="14" fill="rgba(34,211,238,0.10)" stroke="rgba(255,255,255,0.10)"/>
      <text x="36" y="134" fill="rgba(244,247,255,0.88)" font-family="system-ui" font-size="9" font-weight="800">Today Focus</text>
      <text x="36" y="152" fill="rgba(244,247,255,0.62)" font-family="system-ui" font-size="9">Next best action</text>
      <rect x="28" y="178" width="64" height="70" rx="14" fill="rgba(139,92,246,0.10)" stroke="rgba(255,255,255,0.10)"/>
      <rect x="98" y="178" width="64" height="70" rx="14" fill="rgba(163,230,53,0.08)" stroke="rgba(255,255,255,0.10)"/>
      <text x="60" y="220" text-anchor="middle" fill="rgba(244,247,255,0.68)" font-family="system-ui" font-size="9">Projects</text>
      <text x="130" y="220" text-anchor="middle" fill="rgba(244,247,255,0.68)" font-family="system-ui" font-size="9">Streak</text>
    </g>

    <!-- Phone 2 -->
    <g transform="translate(210,50)">
      <rect x="0" y="0" width="190" height="280" rx="26" fill="rgba(255,255,255,0.05)" stroke="rgba(255,255,255,0.16)"/>
      <rect x="14" y="14" width="162" height="252" rx="18" fill="rgba(0,0,0,0.26)" stroke="rgba(255,255,255,0.10)"/>
      <rect x="34" y="28" width="120" height="10" rx="5" fill="rgba(255,255,255,0.10)"/>
      <text x="95" y="58" text-anchor="middle" fill="rgba(244,247,255,0.92)" font-family="system-ui" font-size="11" font-weight="900">2) Vault</text>
      <rect x="28" y="78" width="134" height="22" rx="11" fill="rgba(255,255,255,0.06)" stroke="rgba(255,255,255,0.10)"/>
      <text x="95" y="93" text-anchor="middle" fill="rgba(244,247,255,0.65)" font-family="system-ui" font-size="9">Search + Filters</text>
      <rect x="28" y="110" width="134" height="36" rx="12" fill="rgba(255,255,255,0.05)" stroke="rgba(255,255,255,0.10)"/>
      <rect x="28" y="152" width="134" height="36" rx="12" fill="rgba(255,255,255,0.05)" stroke="rgba(255,255,255,0.10)"/>
      <rect x="28" y="194" width="134" height="36" rx="12" fill="rgba(255,255,255,0.05)" stroke="rgba(255,255,255,0.10)"/>
      <text x="95" y="240" text-anchor="middle" fill="rgba(244,247,255,0.62)" font-family="system-ui" font-size="9">Ideas • Links • Notes • Snippets</text>
    </g>

    <!-- Phone 3 -->
    <g transform="translate(420,50)">
      <rect x="0" y="0" width="190" height="280" rx="26" fill="rgba(255,255,255,0.05)" stroke="rgba(255,255,255,0.16)"/>
      <rect x="14" y="14" width="162" height="252" rx="18" fill="rgba(0,0,0,0.26)" stroke="rgba(255,255,255,0.10)"/>
      <rect x="34" y="28" width="120" height="10" rx="5" fill="rgba(255,255,255,0.10)"/>
      <text x="95" y="58" text-anchor="middle" fill="rgba(244,247,255,0.92)" font-family="system-ui" font-size="11" font-weight="900">3) Blueprint</text>
      <rect x="28" y="78" width="134" height="26" rx="12" fill="rgba(139,92,246,0.10)" stroke="rgba(255,255,255,0.10)"/>
      <text x="95" y="95" text-anchor="middle" fill="rgba(244,247,255,0.70)" font-family="system-ui" font-size="9">Problem + Promise</text>
      <rect x="28" y="112" width="134" height="60" rx="14" fill="rgba(255,255,255,0.05)" stroke="rgba(255,255,255,0.10)"/>
      <text x="95" y="146" text-anchor="middle" fill="rgba(244,247,255,0.62)" font-family="system-ui" font-size="9">5 Screens</text>
      <rect x="28" y="180" width="64" height="70" rx="14" fill="rgba(34,211,238,0.10)" stroke="rgba(255,255,255,0.10)"/>
      <rect x="98" y="180" width="64" height="70" rx="14" fill="rgba(245,158,11,0.10)" stroke="rgba(255,255,255,0.10)"/>
      <text x="60" y="222" text-anchor="middle" fill="rgba(244,247,255,0.66)" font-family="system-ui" font-size="9">DoD</text>
      <text x="130" y="222" text-anchor="middle" fill="rgba(244,247,255,0.66)" font-family="system-ui" font-size="9">Scope</text>
    </g>

    <!-- Phone 4 -->
    <g transform="translate(630,50)">
      <rect x="0" y="0" width="190" height="280" rx="26" fill="rgba(255,255,255,0.05)" stroke="rgba(255,255,255,0.16)"/>
      <rect x="14" y="14" width="162" height="252" rx="18" fill="rgba(0,0,0,0.26)" stroke="rgba(255,255,255,0.10)"/>
      <rect x="34" y="28" width="120" height="10" rx="5" fill="rgba(255,255,255,0.10)"/>
      <text x="95" y="58" text-anchor="middle" fill="rgba(244,247,255,0.92)" font-family="system-ui" font-size="11" font-weight="900">4) Build Studio</text>
      <rect x="28" y="78" width="134" height="36" rx="12" fill="rgba(34,211,238,0.10)" stroke="rgba(255,255,255,0.10)"/>
      <text x="95" y="100" text-anchor="middle" fill="rgba(244,247,255,0.62)" font-family="system-ui" font-size="9">Prompt Packs</text>
      <rect x="28" y="120" width="134" height="36" rx="12" fill="rgba(255,255,255,0.05)" stroke="rgba(255,255,255,0.10)"/>
      <text x="95" y="142" text-anchor="middle" fill="rgba(244,247,255,0.62)" font-family="system-ui" font-size="9">Agent Tasks</text>
      <rect x="28" y="162" width="134" height="36" rx="12" fill="rgba(255,255,255,0.05)" stroke="rgba(255,255,255,0.10)"/>
      <text x="95" y="184" text-anchor="middle" fill="rgba(244,247,255,0.62)" font-family="system-ui" font-size="9">n8n Workflows</text>
      <rect x="28" y="204" width="134" height="46" rx="14" fill="rgba(139,92,246,0.10)" stroke="rgba(255,255,255,0.10)"/>
      <text x="95" y="232" text-anchor="middle" fill="rgba(244,247,255,0.70)" font-family="system-ui" font-size="9">Decisions Log</text>
    </g>

    <!-- Phone 5 -->
    <g transform="translate(840,50)">
      <rect x="0" y="0" width="190" height="280" rx="26" fill="rgba(255,255,255,0.05)" stroke="rgba(255,255,255,0.16)"/>
      <rect x="14" y="14" width="162" height="252" rx="18" fill="rgba(0,0,0,0.26)" stroke="rgba(255,255,255,0.10)"/>
      <rect x="34" y="28" width="120" height="10" rx="5" fill="rgba(255,255,255,0.10)"/>
      <text x="95" y="58" text-anchor="middle" fill="rgba(244,247,255,0.92)" font-family="system-ui" font-size="11" font-weight="900">5) Reality Check</text>
      <rect x="28" y="78" width="134" height="52" rx="14" fill="rgba(245,158,11,0.10)" stroke="rgba(255,255,255,0.10)"/>
      <text x="95" y="108" text-anchor="middle" fill="rgba(244,247,255,0.70)" font-family="system-ui" font-size="9">Evidence Board</text>
      <rect x="28" y="138" width="64" height="52" rx="14" fill="rgba(163,230,53,0.08)" stroke="rgba(255,255,255,0.10)"/>
      <rect x="98" y="138" width="64" height="52" rx="14" fill="rgba(251,113,133,0.10)" stroke="rgba(255,255,255,0.10)"/>
      <text x="60" y="170" text-anchor="middle" fill="rgba(244,247,255,0.66)" font-family="system-ui" font-size="9">Ship</text>
      <text x="130" y="170" text-anchor="middle" fill="rgba(244,247,255,0.66)" font-family="system-ui" font-size="9">Kill</text>
      <rect x="28" y="198" width="134" height="52" rx="14" fill="rgba(34,211,238,0.10)" stroke="rgba(255,255,255,0.10)"/>
      <text x="95" y="228" text-anchor="middle" fill="rgba(244,247,255,0.70)" font-family="system-ui" font-size="9">Iterate Plan</text>
    </g>
  </g>
</svg>
