<svg xmlns="http://www.w3.org/2000/svg" width="1600" height="900" viewBox="0 0 1600 900">
  <defs>
    <radialGradient id="devBgA" cx="15%" cy="10%" r="70%">
      <stop offset="0%" stop-color="#14b8a6" stop-opacity="0.35"/>
      <stop offset="55%" stop-color="#14b8a6" stop-opacity="0.12"/>
      <stop offset="100%" stop-color="#0a0a0f" stop-opacity="0"/>
    </radialGradient>
    <radialGradient id="devBgB" cx="85%" cy="15%" r="75%">
      <stop offset="0%" stop-color="#06b6d4" stop-opacity="0.3"/>
      <stop offset="60%" stop-color="#06b6d4" stop-opacity="0.1"/>
      <stop offset="100%" stop-color="#0a0a0f" stop-opacity="0"/>
    </radialGradient>
    <pattern id="codePattern" width="120" height="120" patternUnits="userSpaceOnUse">
      <circle cx="20" cy="20" r="1.2" fill="#ffffff" opacity="0.4"/>
      <circle cx="80" cy="40" r="1.0" fill="#14b8a6" opacity="0.3"/>
      <circle cx="100" cy="80" r="1.4" fill="#06b6d4" opacity="0.35"/>
      <path d="M10 10 L30 10 L30 30 L10 30 Z" fill="none" stroke="rgba(20,184,166,0.15)" stroke-width="0.5"/>
      <path d="M50 50 L70 50 L70 70 L50 70 Z" fill="none" stroke="rgba(6,182,212,0.15)" stroke-width="0.5"/>
    </pattern>
    <linearGradient id="codeLine" x1="0" y1="0" x2="1" y2="0">
      <stop offset="0%" stop-color="#14b8a6" stop-opacity="0.2"/>
      <stop offset="50%" stop-color="#06b6d4" stop-opacity="0.15"/>
      <stop offset="100%" stop-color="#14b8a6" stop-opacity="0.1"/>
    </linearGradient>
  </defs>
  <rect width="1600" height="900" fill="#0a0a0f"/>
  <rect width="1600" height="900" fill="url(#devBgA)"/>
  <rect width="1600" height="900" fill="url(#devBgB)"/>
  <rect width="1600" height="900" fill="url(#codePattern)" opacity="0.4"/>
  <!-- Code brackets (decorative) -->
  <g opacity="0.3">
    <path d="M200 200 L180 220 L200 240" fill="none" stroke="url(#codeLine)" stroke-width="2" stroke-linecap="round"/>
    <path d="M1400 300 L1420 320 L1400 340" fill="none" stroke="url(#codeLine)" stroke-width="2" stroke-linecap="round"/>
    <path d="M300 700 L280 720 L300 740" fill="none" stroke="url(#codeLine)" stroke-width="2" stroke-linecap="round"/>
  </g>
  <!-- Constellation (developer network) -->
  <g opacity="0.4">
    <path d="M1200 200 L1320 280 L1400 200 L1440 320" fill="none" stroke="rgba(20,184,166,0.3)" stroke-width="1.5"/>
    <circle cx="1200" cy="200" r="3" fill="#14b8a6" opacity="0.6"/>
    <circle cx="1320" cy="280" r="3" fill="#06b6d4" opacity="0.6"/>
    <circle cx="1400" cy="200" r="3" fill="#14b8a6" opacity="0.6"/>
    <circle cx="1440" cy="320" r="3" fill="#06b6d4" opacity="0.6"/>
  </g>
</svg>
