<svg xmlns="http://www.w3.org/2000/svg" width="256" height="256" viewBox="0 0 256 256">
  <defs>
    <linearGradient id="starAccent" x1="0" y1="0" x2="1" y2="1">
      <stop offset="0%" stop-color="#fbbf24"/>
      <stop offset="50%" stop-color="#f59e0b"/>
      <stop offset="100%" stop-color="#d97706"/>
    </linearGradient>
    <radialGradient id="starGlow" cx="50%" cy="50%" r="50%">
      <stop offset="0%" stop-color="#fbbf24" stop-opacity="0.4"/>
      <stop offset="100%" stop-color="#0a0a0f" stop-opacity="0"/>
    </radialGradient>
  </defs>
  <rect width="256" height="256" rx="56" fill="#0a0a0f"/>
  <circle cx="128" cy="128" r="60" fill="url(#starGlow)" opacity="0.3"/>
  <g transform="translate(128, 128)">
    <!-- Star shape -->
    <path d="M0 -40 L8 -12 L36 -12 L12 4 L20 32 L0 20 L-20 32 L-12 4 L-36 -12 L-8 -12 Z" 
          fill="rgba(255,255,255,0.08)" stroke="url(#starAccent)" stroke-width="2.5"/>
    <!-- Inner glow -->
    <path d="M0 -30 L6 -9 L27 -9 L9 3 L15 24 L0 15 L-15 24 L-9 3 L-27 -9 L-6 -9 Z" 
          fill="url(#starGlow)" opacity="0.6"/>
    <!-- Sparkle dots -->
    <circle cx="-50" cy="-50" r="2" fill="#fbbf24" opacity="0.6"/>
    <circle cx="50" cy="-50" r="2" fill="#fbbf24" opacity="0.6"/>
    <circle cx="-50" cy="50" r="2" fill="#f59e0b" opacity="0.6"/>
    <circle cx="50" cy="50" r="2" fill="#f59e0b" opacity="0.6"/>
  </g>
</svg>
