<svg xmlns="http://www.w3.org/2000/svg" width="256" height="256" viewBox="0 0 256 256">
  <defs>
    <linearGradient id="puzzleAccent" x1="0" y1="0" x2="1" y2="1">
      <stop offset="0%" stop-color="#14b8a6"/>
      <stop offset="50%" stop-color="#06b6d4"/>
      <stop offset="100%" stop-color="#8b5cf6"/>
    </linearGradient>
  </defs>
  <rect width="256" height="256" rx="56" fill="#0a0a0f"/>
  <g transform="translate(128, 128)">
    <!-- Puzzle piece 1 (top-left) -->
    <path d="M-40 -40 L-20 -40 L-20 -30 Q-20 -25 -15 -25 L-5 -25 L-5 -35 Q-5 -40 -10 -40 L-20 -40 L-20 -50 Q-20 -55 -25 -55 L-35 -55 Q-40 -55 -40 -50 Z" 
          fill="rgba(255,255,255,0.06)" stroke="url(#puzzleAccent)" stroke-width="2"/>
    <!-- Puzzle piece 2 (top-right) -->
    <path d="M20 -40 L40 -40 L40 -50 Q40 -55 35 -55 L25 -55 Q20 -55 20 -50 L20 -40 L10 -40 Q5 -40 5 -35 L5 -25 L15 -25 Q20 -25 20 -30 Z" 
          fill="rgba(255,255,255,0.06)" stroke="url(#puzzleAccent)" stroke-width="2"/>
    <!-- Puzzle piece 3 (bottom-left) -->
    <path d="M-40 20 L-20 20 L-20 30 Q-20 35 -15 35 L-5 35 L-5 25 Q-5 20 -10 20 L-20 20 L-20 10 Q-20 5 -25 5 L-35 5 Q-40 5 -40 10 Z" 
          fill="rgba(255,255,255,0.06)" stroke="url(#puzzleAccent)" stroke-width="2"/>
    <!-- Puzzle piece 4 (bottom-right) -->
    <path d="M20 20 L40 20 L40 10 Q40 5 35 5 L25 5 Q20 5 20 10 L20 20 L10 20 Q5 20 5 25 L5 35 L15 35 Q20 35 20 30 Z" 
          fill="rgba(255,255,255,0.06)" stroke="url(#puzzleAccent)" stroke-width="2"/>
    <!-- Connection lines (partnership) -->
    <line x1="-10" y1="-25" x2="10" y2="-25" stroke="url(#puzzleAccent)" stroke-width="2" opacity="0.4"/>
    <line x1="-10" y1="25" x2="10" y2="25" stroke="url(#puzzleAccent)" stroke-width="2" opacity="0.4"/>
    <line x1="-25" y1="-10" x2="-25" y2="10" stroke="url(#puzzleAccent)" stroke-width="2" opacity="0.4"/>
    <line x1="25" y1="-10" x2="25" y2="10" stroke="url(#puzzleAccent)" stroke-width="2" opacity="0.4"/>
    <!-- Constellation dots -->
    <circle cx="-50" cy="-50" r="2" fill="#14b8a6" opacity="0.6"/>
    <circle cx="50" cy="-50" r="2" fill="#06b6d4" opacity="0.6"/>
    <circle cx="-50" cy="50" r="2" fill="#06b6d4" opacity="0.6"/>
    <circle cx="50" cy="50" r="2" fill="#8b5cf6" opacity="0.6"/>
  </g>
</svg>
